<?xml version="1.0" standalone="no"?>
<!DOCTYPE svg PUBLIC "-//W3C//DTD SVG 20010904//EN"
 "http://www.w3.org/TR/2001/REC-SVG-20010904/DTD/svg10.dtd">
<svg version="1.0" xmlns="http://www.w3.org/2000/svg"
 width="600.000000pt" height="315.000000pt" viewBox="0 0 600.000000 315.000000"
 preserveAspectRatio="xMidYMid meet">

<g transform="translate(0.000000,315.000000) scale(0.100000,-0.100000)"
fill="#000000" stroke="none">
<path d="M1826 3134 c-199 -48 -373 -224 -421 -425 -22 -96 -22 -2172 0 -2268
48 -203 223 -378 426 -426 96 -22 2252 -22 2348 0 203 48 378 223 426 426 22
96 22 2172 0 2268 -48 203 -223 378 -426 426 -93 21 -2262 21 -2353 -1z m1934
-706 c54 -28 80 -74 80 -143 0 -62 -25 -113 -70 -143 -30 -20 -44 -23 -104
-20 -65 4 -70 6 -106 45 -80 85 -58 218 43 264 56 25 103 24 157 -3z m-627
-786 c136 -385 247 -702 247 -705 0 -4 -69 -7 -154 -7 l-154 0 -57 165 -58
165 -253 0 -253 0 -52 -165 -52 -165 -144 0 c-79 0 -143 3 -143 7 0 4 101 300
224 658 124 357 228 671 231 698 l6 47 182 0 182 0 248 -698z m687 -177 l0
-535 -145 0 -145 0 0 535 0 535 145 0 145 0 0 -535z"/>
<path d="M2698 2080 c-3 -8 -15 -51 -27 -95 -19 -71 -122 -401 -137 -440 -5
-13 16 -15 165 -15 139 0 171 3 171 14 0 7 -32 117 -71 242 -98 316 -96 311
-101 294z"/>
</g>
</svg>
